<!--<svg xmlns="http://www.w3.org/2000/svg" width="20" height="17"><path fill="#FFF" d="M20 2.172a8.192 8.192 0 01-2.357.646 4.11 4.11 0 001.804-2.27 8.22 8.22 0 01-2.605.996A4.096 4.096 0 0013.847.248c-2.65 0-4.596 2.472-3.998 5.037A11.648 11.648 0 011.392 1a4.109 4.109 0 001.27 5.478 4.086 4.086 0 01-1.858-.513c-.045 1.9 1.318 3.679 3.291 4.075a4.113 4.113 0 01-1.853.07 4.106 4.106 0 003.833 2.849A8.25 8.25 0 010 14.658a11.616 11.616 0 006.29 1.843c7.618 0 11.922-6.434 11.663-12.205A8.354 8.354 0 0020 2.172z"/></svg>-->
<svg xmlns="http://www.w3.org/2000/svg" viewBox="0 0 512 512"><!--!Font Awesome Free 6.5.1 by @fontawesome - https://fontawesome.com License - https://fontawesome.com/license/free Copyright 2024 Fonticons, Inc.--><path fill="#ffffff" d="M459.4 151.7c.3 4.5 .3 9.1 .3 13.6 0 138.7-105.6 298.6-298.6 298.6-59.5 0-114.7-17.2-161.1-47.1 8.4 1 16.6 1.3 25.3 1.3 49.1 0 94.2-16.6 130.3-44.8-46.1-1-84.8-31.2-98.1-72.8 6.5 1 13 1.6 19.8 1.6 9.4 0 18.8-1.3 27.6-3.6-48.1-9.7-84.1-52-84.1-103v-1.3c14 7.8 30.2 12.7 47.4 13.3-28.3-18.8-46.8-51-46.8-87.4 0-19.5 5.2-37.4 14.3-53 51.7 63.7 129.3 105.3 216.4 109.8-1.6-7.8-2.6-15.9-2.6-24 0-57.8 46.8-104.9 104.9-104.9 30.2 0 57.5 12.7 76.7 33.1 23.7-4.5 46.5-13.3 66.6-25.3-7.8 24.4-24.4 44.8-46.1 57.8 21.1-2.3 41.6-8.1 60.4-16.2-14.3 20.8-32.2 39.3-52.6 54.3z"/></svg>